<?xml version="1.0" encoding="utf-8"?>
<!-- Generator: Adobe Illustrator 25.0.0, SVG Export Plug-In . SVG Version: 6.00 Build 0)  -->
<svg version="1.1" id="Laag_1" xmlns="http://www.w3.org/2000/svg" xmlns:xlink="http://www.w3.org/1999/xlink" x="0px" y="0px"
	 viewBox="0 0 147 666" style="enable-background:new 0 0 147 666;" xml:space="preserve">
<style type="text/css">
	.st0{opacity:0.14;}
	.st1{fill:#F2C744;stroke:#000000;stroke-miterlimit:10;}
	.st2{fill:#FEFEFE;stroke:#000000;stroke-width:0.75;stroke-miterlimit:10;}
	.st3{opacity:0.5;}
	.st4{opacity:0.49;}
	.st5{opacity:0.58;}
	.st6{opacity:0.56;}
	.st7{opacity:0.57;}
</style>
<path class="st0" d="M88,640c-1.33-186.09-2.67-372.19-4-558.28c-0.44-10.22-4.87-18.84-11-22.94c-4.5-3.01-9.91-4.16-9.91-4.16
	C62.25,54.44,59.56,53.91,56,54c-2.15,0.06-5.87,0.19-10,1.91c-1.42,0.59-5.67,2.53-9,6.69c-6.61,8.25-5.94,20.67-6,21.03l0,0l0,0
	V640H88z"/>
<path class="st1" d="M117,640c-1.33-194.67-2.67-389.33-4-584c-0.44-10.69-4.87-19.71-11-24c-4.5-3.15-9.91-4.35-9.91-4.35
	C91.25,27.46,88.56,26.9,85,27c-2.15,0.06-5.87,0.2-10,2c-1.42,0.62-5.67,2.65-9,7c-6.61,8.63-5.94,21.62-6,22l0,0l0,0v582H117z"/>
<path class="st2" d="M85.35,65c1.62,0.12,6.06,0.22,10.09-2.67c2.93-2.1,4.24-4.78,5.22-6.83c1.25-2.62,1.62-5.73,2.39-11.93
	c0.1-0.82,0.6-4.95,0.84-10.48c0.05-1.24,0.08-2.27,0.1-3c-2.46-1.25-4.92-2.49-7.38-3.74c-2.53-0.77-6.33-1.6-10.96-1.36
	c-2.58,0.13-6.73,0.35-11.09,2.64c-0.46,0.24-2.35,1.43-6.13,3.8c0.3,3.19,0.81,8.43,1.51,15.06c0.78,7.36,1.16,10.32,3.58,13.12
	c2.31,2.68,5.42,3.99,5.93,4.19C81.86,64.79,84.01,64.98,85.35,65z"/>
<g class="st3">
	<g>
		<path d="M66.78,54.39c-0.04,2.96,1.68,5.48,3.35,7.78c0.87,1.2,1.78,2.24,3.06,3.01c1.29,0.77,2.68,1.54,4.18,1.73
			c0.64,0.08,0.63-0.92,0-1c-1.33-0.17-2.64-0.96-3.77-1.65c-1.22-0.74-2.03-1.78-2.85-2.92c-1.47-2.06-3-4.31-2.97-6.94
			C67.79,53.75,66.79,53.75,66.78,54.39L66.78,54.39z"/>
	</g>
</g>
<g class="st4">
	<g>
		<path d="M97.87,64.38c1.31-0.01,2.36-1.19,3.09-2.15c0.75-0.98,1.3-2.13,1.58-3.33c0.15-0.63-0.81-0.89-0.96-0.27
			c-0.25,1.05-0.7,2.02-1.34,2.9c-0.31,0.42-0.66,0.81-1.05,1.16c-0.37,0.34-0.81,0.69-1.33,0.7
			C97.23,63.39,97.23,64.39,97.87,64.38L97.87,64.38z"/>
	</g>
</g>
<g class="st5">
	<g>
		<path d="M70.04,100.19c4.19,0.61,8.43,0.52,12.63,0.02c2.09-0.25,4.17-0.58,6.24-0.97c1.06-0.2,2.13-0.47,3.21-0.55
			c1.11-0.08,2.11,0.18,3.16,0.51c2.22,0.7,4.45,0.94,6.76,0.61c0.63-0.09,0.36-1.05-0.27-0.96c-2.08,0.29-4.13,0.05-6.12-0.58
			c-0.92-0.29-1.84-0.57-2.81-0.6c-1.02-0.03-2.02,0.19-3.01,0.38c-4.07,0.79-8.18,1.44-12.33,1.56c-2.4,0.07-4.81-0.03-7.19-0.38
			C69.67,99.14,69.4,100.1,70.04,100.19L70.04,100.19z"/>
	</g>
</g>
<g class="st6">
	<g>
		<path d="M77.31,98.18c2.43,0.13,4.73-0.66,7.1-1.08c2.49-0.45,5.06-0.36,7.53,0.21c0.63,0.14,0.89-0.82,0.27-0.96
			c-2.42-0.56-4.9-0.68-7.36-0.32c-2.52,0.36-4.96,1.3-7.53,1.16C76.67,97.14,76.67,98.14,77.31,98.18L77.31,98.18z"/>
	</g>
</g>
<g class="st7">
	<g>
		<path d="M71.86,274.53c4.83,0.33,9.39-1.47,14.12-2.03c2.49-0.3,4.96-0.06,7.45,0.18c2.61,0.25,5.22,0.51,7.82,0.76
			c0.64,0.06,0.64-0.94,0-1c-2.61-0.25-5.22-0.51-7.82-0.76c-2.49-0.24-4.95-0.48-7.45-0.18c-4.73,0.56-9.31,2.37-14.12,2.03
			C71.22,273.48,71.22,274.48,71.86,274.53L71.86,274.53z"/>
	</g>
</g>
<g class="st7">
	<g>
		<path d="M79.92,270.24c4.18,1.62,8.68,0.04,13,0.47c0.64,0.06,0.64-0.94,0-1c-4.22-0.42-8.65,1.15-12.73-0.44
			C79.59,269.04,79.33,270.01,79.92,270.24L79.92,270.24z"/>
	</g>
</g>
</svg>
